<?xml version="1.0" encoding="iso-8859-1"?>
<!-- Generator: Adobe Illustrator 22.1.0, SVG Export Plug-In . SVG Version: 6.00 Build 0)  -->
<svg xmlns="http://www.w3.org/2000/svg" xmlns:xlink="http://www.w3.org/1999/xlink" version="1.1" id="Layer_1" x="0px" y="0px" viewBox="0 0 100 100" style="enable-background:new 0 0 100 100;" xml:space="preserve" width="100px" height="100px">
<g>
	<path style="fill:#C7EDE6;" d="M87.215,56.71C88.35,54.555,89,52.105,89,49.5c0-6.621-4.159-12.257-10.001-14.478   C78.999,35.015,79,35.008,79,35c0-11.598-9.402-21-21-21c-9.784,0-17.981,6.701-20.313,15.757C36.211,29.272,34.638,29,33,29   c-7.692,0-14.023,5.793-14.89,13.252C12.906,43.353,9,47.969,9,53.5C9,59.851,14.149,65,20.5,65c0.177,0,0.352-0.012,0.526-0.022   C21.022,65.153,21,65.324,21,65.5C21,76.822,30.178,86,41.5,86c6.437,0,12.175-2.972,15.934-7.614C59.612,80.611,62.64,82,66,82   c4.65,0,8.674-2.65,10.666-6.518C77.718,75.817,78.837,76,80,76c6.075,0,11-4.925,11-11C91,61.689,89.53,58.727,87.215,56.71z"/>
</g>
<g>
	<g>
		<path style="fill:#FDFCEF;" d="M79.875,60.5c0,0,3.64,0,6.125,0s4.5-2.015,4.5-4.5c0-2.333-1.782-4.229-4.055-4.455    C86.467,51.364,86.5,51.187,86.5,51c0-2.485-2.015-4.5-4.5-4.5c-1.438,0-2.703,0.686-3.527,1.736    C78.333,45.6,76.171,43.5,73.5,43.5c-2.761,0-5,2.239-5,5c0,0.446,0.077,0.87,0.187,1.282C68.045,49.005,67.086,48.5,66,48.5    c-1.781,0-3.234,1.335-3.455,3.055C62.364,51.533,62.187,51.5,62,51.5c-2.485,0-4.5,2.015-4.5,4.5s2.015,4.5,4.5,4.5s9.5,0,9.5,0    h5.375V61h3V60.5z"/>
	</g>
	<g>
		<path style="fill:#472B29;" d="M73.5,43c-3.033,0-5.5,2.467-5.5,5.5c0,0.016,0,0.031,0,0.047C67.398,48.192,66.71,48,66,48    c-1.831,0-3.411,1.261-3.858,3.005C62.095,51.002,62.048,51,62,51c-2.757,0-5,2.243-5,5s2.243,5,5,5h14.875    c0.276,0,0.5-0.224,0.5-0.5s-0.224-0.5-0.5-0.5H62c-2.206,0-4-1.794-4-4s1.794-4,4-4c0.117,0,0.23,0.017,0.343,0.032l0.141,0.019    c0.021,0.003,0.041,0.004,0.062,0.004c0.246,0,0.462-0.185,0.495-0.437C63.232,50.125,64.504,49,66,49    c0.885,0,1.723,0.401,2.301,1.1c0.098,0.118,0.241,0.182,0.386,0.182c0.078,0,0.156-0.018,0.228-0.056    c0.209-0.107,0.314-0.346,0.254-0.573C69.054,49.218,69,48.852,69,48.5c0-2.481,2.019-4.5,4.5-4.5    c2.381,0,4.347,1.872,4.474,4.263c0.011,0.208,0.15,0.387,0.349,0.45c0.05,0.016,0.101,0.024,0.152,0.024    c0.15,0,0.296-0.069,0.392-0.192C79.638,47.563,80.779,47,82,47c2.206,0,4,1.794,4,4c0,0.117-0.017,0.23-0.032,0.343l-0.019,0.141    c-0.016,0.134,0.022,0.268,0.106,0.373c0.084,0.105,0.207,0.172,0.34,0.185C88.451,52.247,90,53.949,90,56c0,2.206-1.794,4-4,4    h-6.125c-0.276,0-0.5,0.224-0.5,0.5s0.224,0.5,0.5,0.5H86c2.757,0,5-2.243,5-5c0-2.397-1.689-4.413-4.003-4.877    C86.999,51.082,87,51.041,87,51c0-2.757-2.243-5-5-5c-1.176,0-2.293,0.416-3.183,1.164C78.219,44.76,76.055,43,73.5,43L73.5,43z"/>
	</g>
	<g>
		<path style="fill:#472B29;" d="M72,50c-1.403,0-2.609,0.999-2.913,2.341C68.72,52.119,68.301,52,67.875,52    c-1.202,0-2.198,0.897-2.353,2.068C65.319,54.022,65.126,54,64.938,54c-1.529,0-2.811,1.2-2.918,2.732    C62.01,56.87,62.114,56.99,62.251,57c0.006,0,0.012,0,0.018,0c0.13,0,0.24-0.101,0.249-0.232c0.089-1.271,1.151-2.268,2.419-2.268    c0.229,0,0.47,0.042,0.738,0.127c0.022,0.007,0.045,0.01,0.067,0.01c0.055,0,0.11-0.02,0.156-0.054    C65.962,54.537,66,54.455,66,54.375c0-1.034,0.841-1.875,1.875-1.875c0.447,0,0.885,0.168,1.231,0.473    c0.047,0.041,0.106,0.063,0.165,0.063c0.032,0,0.063-0.006,0.093-0.019c0.088-0.035,0.148-0.117,0.155-0.212    C69.623,51.512,70.712,50.5,72,50.5c0.208,0,0.425,0.034,0.682,0.107c0.023,0.007,0.047,0.01,0.07,0.01    c0.109,0,0.207-0.073,0.239-0.182c0.038-0.133-0.039-0.271-0.172-0.309C72.517,50.04,72.256,50,72,50L72,50z"/>
	</g>
	<g>
		<path style="fill:#472B29;" d="M85.883,51.5c-1.326,0-2.508,0.897-2.874,2.182c-0.038,0.133,0.039,0.271,0.172,0.309    C83.205,53.997,83.228,54,83.25,54c0.109,0,0.209-0.072,0.24-0.182C83.795,52.748,84.779,52,85.883,52    c0.117,0,0.23,0.014,0.342,0.029c0.012,0.002,0.023,0.003,0.035,0.003c0.121,0,0.229-0.092,0.246-0.217    c0.019-0.137-0.077-0.263-0.214-0.281C86.158,51.516,86.022,51.5,85.883,51.5L85.883,51.5z"/>
	</g>
</g>
<g>
	<g>
		<path style="fill:#FFFFFF;" d="M15.405,51H5.5C5.224,51,5,50.776,5,50.5S5.224,50,5.5,50h9.905c0.276,0,0.5,0.224,0.5,0.5    S15.682,51,15.405,51z"/>
	</g>
	<g>
		<path style="fill:#FFFFFF;" d="M18.5,51h-1c-0.276,0-0.5-0.224-0.5-0.5s0.224-0.5,0.5-0.5h1c0.276,0,0.5,0.224,0.5,0.5    S18.777,51,18.5,51z"/>
	</g>
	<g>
		<path style="fill:#FFFFFF;" d="M23.491,53H14.5c-0.276,0-0.5-0.224-0.5-0.5s0.224-0.5,0.5-0.5h8.991c0.276,0,0.5,0.224,0.5,0.5    S23.767,53,23.491,53z"/>
	</g>
	<g>
		<path style="fill:#FFFFFF;" d="M12.5,53h-1c-0.276,0-0.5-0.224-0.5-0.5s0.224-0.5,0.5-0.5h1c0.276,0,0.5,0.224,0.5,0.5    S12.777,53,12.5,53z"/>
	</g>
	<g>
		<path style="fill:#FFFFFF;" d="M9.5,53h-2C7.224,53,7,52.776,7,52.5S7.224,52,7.5,52h2c0.276,0,0.5,0.224,0.5,0.5S9.777,53,9.5,53    z"/>
	</g>
	<g>
		<path style="fill:#FFFFFF;" d="M15.5,55h-2c-0.276,0-0.5-0.224-0.5-0.5s0.224-0.5,0.5-0.5h2c0.276,0,0.5,0.224,0.5,0.5    S15.776,55,15.5,55z"/>
	</g>
	<g>
		<path style="fill:#FFFFFF;" d="M18.5,46c-0.177,0-0.823,0-1,0c-0.276,0-0.5,0.224-0.5,0.5c0,0.276,0.224,0.5,0.5,0.5    c0.177,0,0.823,0,1,0c0.276,0,0.5-0.224,0.5-0.5C19,46.224,18.776,46,18.5,46z"/>
	</g>
	<g>
		<path style="fill:#FFFFFF;" d="M18.5,48c-0.177,0-4.823,0-5,0c-0.276,0-0.5,0.224-0.5,0.5c0,0.276,0.224,0.5,0.5,0.5    c0.177,0,4.823,0,5,0c0.276,0,0.5-0.224,0.5-0.5C19,48.224,18.776,48,18.5,48z"/>
	</g>
	<g>
		<path style="fill:#FFFFFF;" d="M23.5,50c-0.177,0-2.823,0-3,0c-0.276,0-0.5,0.224-0.5,0.5c0,0.276,0.224,0.5,0.5,0.5    c0.177,0,2.823,0,3,0c0.276,0,0.5-0.224,0.5-0.5C24,50.224,23.776,50,23.5,50z"/>
	</g>
</g>
<g>
	<g>
		<path style="fill:#FFFFFF;" d="M72.5,24h-10c-0.276,0-0.5-0.224-0.5-0.5s0.224-0.5,0.5-0.5h10c0.276,0,0.5,0.224,0.5,0.5    S72.776,24,72.5,24z"/>
	</g>
	<g>
		<path style="fill:#FFFFFF;" d="M76.5,24h-2c-0.276,0-0.5-0.224-0.5-0.5s0.224-0.5,0.5-0.5h2c0.276,0,0.5,0.224,0.5,0.5    S76.776,24,76.5,24z"/>
	</g>
	<g>
		<path style="fill:#FFFFFF;" d="M81.5,26h-10c-0.276,0-0.5-0.224-0.5-0.5s0.224-0.5,0.5-0.5h10c0.276,0,0.5,0.224,0.5,0.5    S81.777,26,81.5,26z"/>
	</g>
	<g>
		<path style="fill:#FFFFFF;" d="M69.5,26h-1c-0.276,0-0.5-0.224-0.5-0.5s0.224-0.5,0.5-0.5h1c0.276,0,0.5,0.224,0.5,0.5    S69.776,26,69.5,26z"/>
	</g>
	<g>
		<path style="fill:#FFFFFF;" d="M66.375,26H64.5c-0.276,0-0.5-0.224-0.5-0.5s0.224-0.5,0.5-0.5h1.875c0.276,0,0.5,0.224,0.5,0.5    S66.651,26,66.375,26z"/>
	</g>
	<g>
		<path style="fill:#FFFFFF;" d="M75.5,22h-5c-0.276,0-0.5-0.224-0.5-0.5s0.224-0.5,0.5-0.5h5c0.276,0,0.5,0.224,0.5,0.5    S75.777,22,75.5,22z"/>
	</g>
	<g>
		<path style="fill:#FFFFFF;" d="M72.5,28h-2c-0.276,0-0.5-0.224-0.5-0.5s0.224-0.5,0.5-0.5h2c0.276,0,0.5,0.224,0.5,0.5    S72.776,28,72.5,28z"/>
	</g>
</g>
<g>
	<g>
		<g>
			<path style="fill:#3D72B1;" d="M37,71.3c-4.025,0-7.3-3.274-7.3-7.3V36c0-4.025,3.274-7.3,7.3-7.3h28c4.025,0,7.3,3.274,7.3,7.3     v28c0,4.025-3.274,7.3-7.3,7.3H37z"/>
		</g>
	</g>
	<g>
		<g>
			<path style="fill:#472B29;" d="M65,29.4c3.639,0,6.6,2.961,6.6,6.6v28c0,3.639-2.961,6.6-6.6,6.6H37c-3.639,0-6.6-2.961-6.6-6.6     V36c0-3.639,2.961-6.6,6.6-6.6H65 M65,28H37c-4.418,0-8,3.582-8,8v28c0,4.418,3.582,8,8,8h28c4.418,0,8-3.582,8-8V36     C73,31.582,69.418,28,65,28L65,28z"/>
		</g>
	</g>
</g>
<g>
	<path style="fill:#3D72B1;" d="M68.422,47.932l0.006,1.649l0.052,13.543c0.009,2.332-1.892,4.247-4.223,4.256l-26.38,0.1   c-2.332,0.009-4.247-1.892-4.256-4.223l-0.1-26.38c-0.009-2.332,1.892-4.247,4.223-4.256L61.65,32.53l2.473-0.009   c2.332-0.009,4.247,1.892,4.256,4.223l0.012,3.18l0.007,1.884l0.004,0.942l0.004,1.06l0.01,2.709L68.422,47.932"/>
</g>
<g>
	<path style="fill:#472B29;" d="M68.445,47.511c-0.276,0-0.5-0.224-0.5-0.5v-3.706c0-0.276,0.224-0.5,0.5-0.5s0.5,0.224,0.5,0.5   v3.706C68.945,47.287,68.722,47.511,68.445,47.511z"/>
</g>
<g>
	<path style="fill:#472B29;" d="M68.508,41.06c-0.276,0-0.5-0.224-0.5-0.5v-1.913c0-0.276,0.224-0.5,0.5-0.5s0.5,0.224,0.5,0.5   v1.913C69.008,40.836,68.784,41.06,68.508,41.06z"/>
</g>
<g>
	<path style="fill:#472B29;" d="M64.251,67.938H37.812c-2.618,0-4.749-2.131-4.749-4.749V36.749c0-2.618,2.131-4.749,4.749-4.749   h23.961c0.276,0,0.5,0.224,0.5,0.5s-0.224,0.5-0.5,0.5H37.812c-2.067,0-3.749,1.682-3.749,3.749v26.439   c0,2.067,1.682,3.749,3.749,3.749h26.439c2.067,0,3.749-1.682,3.749-3.749V49.614c0-0.276,0.224-0.5,0.5-0.5s0.5,0.224,0.5,0.5   v13.574C69,65.807,66.869,67.938,64.251,67.938z"/>
</g>
<g>
	<g>
		<path style="fill:#FDFCEF;" d="M36.5,73.5c0,0,1.567,0,3.5,0s3.5-1.567,3.5-3.5c0-1.781-1.335-3.234-3.055-3.455    C40.473,66.366,40.5,66.187,40.5,66c0-1.933-1.567-3.5-3.5-3.5c-1.032,0-1.95,0.455-2.59,1.165    c-0.384-1.808-1.987-3.165-3.91-3.165c-2.209,0-4,1.791-4,4c0,0.191,0.03,0.374,0.056,0.558C26.128,64.714,25.592,64.5,25,64.5    c-1.228,0-2.245,0.887-2.455,2.055C22.366,66.527,22.187,66.5,22,66.5c-1.933,0-3.5,1.567-3.5,3.5s1.567,3.5,3.5,3.5s7.5,0,7.5,0    V74h7V73.5z"/>
	</g>
	<g>
		<path style="fill:#472B29;" d="M38.25,69C38.112,69,38,68.888,38,68.75c0-1.223,0.995-2.218,2.218-2.218    c0.034,0.009,0.737-0.001,1.244,0.136c0.133,0.036,0.212,0.173,0.176,0.306c-0.036,0.134-0.173,0.213-0.306,0.176    c-0.444-0.12-1.1-0.12-1.113-0.118c-0.948,0-1.719,0.771-1.719,1.718C38.5,68.888,38.388,69,38.25,69z"/>
	</g>
	<g>
		<circle style="fill:#472B29;" cx="31.5" cy="73.5" r="0.5"/>
	</g>
	<g>
		<path style="fill:#472B29;" d="M40,74h-3.5c-0.276,0-0.5-0.224-0.5-0.5s0.224-0.5,0.5-0.5H40c1.654,0,3-1.346,3-3    c0-1.496-1.125-2.768-2.618-2.959c-0.134-0.018-0.255-0.088-0.336-0.196s-0.115-0.244-0.094-0.377C39.975,66.314,40,66.16,40,66    c0-1.654-1.346-3-3-3c-0.85,0-1.638,0.355-2.219,1c-0.125,0.139-0.321,0.198-0.5,0.148c-0.182-0.049-0.321-0.195-0.36-0.379    C33.58,62.165,32.141,61,30.5,61c-1.93,0-3.5,1.57-3.5,3.5c0,0.143,0.021,0.28,0.041,0.418c0.029,0.203-0.063,0.438-0.242,0.54    c-0.179,0.102-0.396,0.118-0.556-0.01C25.878,65.155,25.449,65,25,65c-0.966,0-1.792,0.691-1.963,1.644    c-0.048,0.267-0.296,0.446-0.569,0.405C22.314,67.025,22.16,67,22,67c-1.654,0-3,1.346-3,3s1.346,3,3,3h7.5    c0.276,0,0.5,0.224,0.5,0.5S29.776,74,29.5,74H22c-2.206,0-4-1.794-4-4s1.794-4,4-4c0.059,0,0.116,0.002,0.174,0.006    C22.588,64.82,23.711,64,25,64c0.349,0,0.689,0.061,1.011,0.18C26.176,61.847,28.126,60,30.5,60c1.831,0,3.466,1.127,4.153,2.774    C35.333,62.276,36.155,62,37,62c2.206,0,4,1.794,4,4c0,0.048-0.001,0.095-0.004,0.142C42.739,66.59,44,68.169,44,70    C44,72.206,42.206,74,40,74z"/>
	</g>
	<g>
		<path style="fill:#472B29;" d="M34.5,73c-0.159,0-0.841,0-1,0c-0.276,0-0.5,0.224-0.5,0.5c0,0.276,0.224,0.5,0.5,0.5    c0.159,0,0.841,0,1,0c0.276,0,0.5-0.224,0.5-0.5C35,73.224,34.776,73,34.5,73z"/>
	</g>
</g>
<g>
	<path style="fill:#FFFEF4;" d="M61.08,53.206c2.158,2.246,2.608,3.343,2.679,3.476c0.895,1.668-0.99,1.794-0.99,1.794l-3.604,0.06   c0,0-0.777,0.173-1.796-0.618c-1.351-1.03-2.62-3.728-3.616-3.383c-1.002,0.359-0.972,2.791-0.972,2.791s0.006,0.425-0.219,0.704   c-0.249,0.292-0.735,0.266-0.735,0.266h-1.618c0,0-3.562,0.332-6.698-3.329c-3.42-3.994-6.437-11.869-6.437-11.869   s-0.172-0.498,0.012-0.751c0.213-0.279,0.794-0.292,0.794-0.292l3.859-0.02c0,0,0.362,0.073,0.622,0.286   c0.213,0.173,0.338,0.505,0.338,0.505s0.622,1.774,1.446,3.369c1.612,3.123,2.365,3.808,2.91,3.476   c0.8-0.492,0.557-4.413,0.557-4.413s0.018-1.429-0.403-2.067c-0.32-0.485-0.925-0.631-1.197-0.671   c-0.219-0.033,0.142-0.598,0.605-0.851c0.694-0.379,1.921-0.405,3.367-0.385c1.126,0.013,1.452,0.093,1.891,0.213   c1.334,0.359,0.883,1.748,0.883,5.084c0,1.07-0.172,2.572,0.516,3.07c0.296,0.213,1.02,0.033,2.822-3.409   c0.859-1.635,1.5-3.549,1.5-3.549s0.142-0.346,0.362-0.492c0.225-0.146,0.528-0.1,0.528-0.1l4.06-0.033   c0,0,1.215-0.159,1.417,0.459c0.207,0.645-0.456,2.16-2.116,4.639C59.118,51.232,58.815,50.854,61.08,53.206z"/>
</g>
</svg>
